<?xml version="1.0" encoding="utf-8"?>
<!-- Generator: Adobe Illustrator 21.1.0, SVG Export Plug-In . SVG Version: 6.00 Build 0)  -->
<svg version="1.1" id="Layer_1" xmlns="http://www.w3.org/2000/svg" xmlns:xlink="http://www.w3.org/1999/xlink" x="0px" y="0px"
	 viewBox="0 0 360 118.1" style="enable-background:new 0 0 360 118.1;" xml:space="preserve">
<style type="text/css">
	.st0{fill:#00BAA1;}
	.st1{fill:#FFFFFF;}
	.st2{fill:url(#SVGID_1_);}
	.st3{fill:#272727;}
	.st4{fill:url(#SVGID_2_);}
</style>
<g>
	<path class="st1" d="M142.4,13.9c0,8.4-6.4,13.9-15.1,13.9s-15.1-5.6-15.1-13.9c0-8.4,6.4-13.9,15.1-13.9S142.4,5.6,142.4,13.9z
		 M115.2,116.2V38h24.2v78.2H115.2z"/>
	<path class="st1" d="M155.5,116.2V6.7h24.2v109.5H155.5z"/>
	<path class="st1" d="M274.2,77.1c0,23.6-18.1,41-41,41c-22.9,0-41-17.5-41-41c0-23.6,18.3-41,41-41
		C255.8,36.1,274.2,53.5,274.2,77.1z M216.7,77.1c0,11,7.3,17.9,16.5,17.9c9.4,0,16.5-7,16.5-17.9c0-10.8-7.1-17.9-16.5-17.9
		C223.8,59.2,216.7,66.3,216.7,77.1z"/>
	<path class="st1" d="M335.8,116.2V61.1h-24.8v55.1h-24.2V38H360v78.2H335.8z"/>
	<polygon class="st1" points="23.5,16.6 23.5,50.7 47.7,50.7 47.7,39.7 47.7,39.7 75.7,39.7 75.7,61.9 0,61.9 0,84.9 23.5,84.9
		23.5,116.2 47.7,116.2 47.7,84.9 99.9,84.9 99.9,16.6 	"/>
</g>
</svg>
